<?xml version="1.0" encoding="UTF-8"?>
<!DOCTYPE svg PUBLIC "-//W3C//DTD SVG 1.1//EN" "http://www.w3.org/Graphics/SVG/1.1/DTD/svg11.dtd">
<svg xmlns="http://www.w3.org/2000/svg" version="1.1" width="85px" height="85px" style="shape-rendering:geometricPrecision; text-rendering:geometricPrecision; image-rendering:optimizeQuality; fill-rule:evenodd; clip-rule:evenodd" xmlns:xlink="http://www.w3.org/1999/xlink">
<g><path style="opacity:0.774" fill="#febd5e" d="M 83.5,23.5 C 82.5,23.5 81.5,23.5 80.5,23.5C 80.7373,24.791 80.404,25.791 79.5,26.5C 79.5,22.1667 79.5,17.8333 79.5,13.5C 60.1667,13.5 40.8333,13.5 21.5,13.5C 21.5,18.1667 21.5,22.8333 21.5,27.5C 20.5655,26.4324 20.2322,25.099 20.5,23.5C 19.5,23.5 18.5,23.5 17.5,23.5C 17.3345,19.4862 17.5012,15.4862 18,11.5C 18.5,11 19,10.5 19.5,10C 40.1667,9.33333 60.8333,9.33333 81.5,10C 82,10.5 82.5,11 83,11.5C 83.4988,15.4862 83.6655,19.4862 83.5,23.5 Z"/></g>
<g><path style="opacity:0.857" fill="#fec361" d="M 77.5,43.5 C 76.596,42.791 76.2627,41.791 76.5,40.5C 75.5,40.5 74.5,40.5 73.5,40.5C 73.5,33.5 73.5,26.5 73.5,19.5C 58.1667,19.5 42.8333,19.5 27.5,19.5C 27.5,22.1667 27.5,24.8333 27.5,27.5C 34.8409,27.3337 42.1742,27.5003 49.5,28C 53.0296,28.6718 54.3629,30.8384 53.5,34.5C 57.314,34.6509 58.9807,36.6509 58.5,40.5C 57.5,40.5 56.5,40.5 55.5,40.5C 55.7373,41.791 55.404,42.791 54.5,43.5C 54.5,41.8333 54.5,40.1667 54.5,38.5C 52.4727,38.3379 50.4727,38.5045 48.5,39C 51.0858,41.494 51.0858,43.994 48.5,46.5C 47.8333,46.5 47.1667,46.5 46.5,46.5C 42.5808,43.9931 42.5808,41.4931 46.5,39C 42.8333,38.3333 39.1667,38.3333 35.5,39C 39.4192,41.4931 39.4192,43.9931 35.5,46.5C 34.8333,46.1667 34.1667,45.8333 33.5,45.5C 32.3065,45.0296 31.6399,44.0296 31.5,42.5C 31.7092,41.0055 32.3759,39.8388 33.5,39C 24.1726,38.5002 14.8393,38.3335 5.5,38.5C 5.5,40.1667 5.5,41.8333 5.5,43.5C 4.59603,42.791 4.26269,41.791 4.5,40.5C 3.5,40.5 2.5,40.5 1.5,40.5C 1.01934,36.6509 2.686,34.6509 6.5,34.5C 6.26057,32.5328 6.59391,30.6995 7.5,29C 10.7256,27.8011 14.059,27.3011 17.5,27.5C 17.5,26.1667 17.5,24.8333 17.5,23.5C 18.5,23.5 19.5,23.5 20.5,23.5C 20.2322,25.099 20.5655,26.4324 21.5,27.5C 23.1734,24.0476 24.1734,20.2143 24.5,16C 41.5,15.3333 58.5,15.3333 75.5,16C 76,16.5 76.5,17 77,17.5C 77.4998,26.1603 77.6664,34.8269 77.5,43.5 Z M 10.5,32.5 C 23.5171,32.1675 36.5171,32.5009 49.5,33.5C 43,33.8333 36.5,34.1667 30,34.5C 23.1307,34.4966 16.6307,33.83 10.5,32.5 Z M 46.5,46.5 C 42.8333,46.5 39.1667,46.5 35.5,46.5C 39.4192,43.9931 39.4192,41.4931 35.5,39C 39.1667,38.3333 42.8333,38.3333 46.5,39C 42.5808,41.4931 42.5808,43.9931 46.5,46.5 Z"/></g>
<g><path style="opacity:0.857" fill="#fecb65" d="M 83.5,23.5 C 83.6665,34.8382 83.4999,46.1716 83,57.5C 82.1667,58.3333 81.3333,59.1667 80.5,60C 75.1771,60.4994 69.8437,60.666 64.5,60.5C 64.5,61.5 64.5,62.5 64.5,63.5C 63.596,62.791 63.2627,61.791 63.5,60.5C 62.5,60.5 61.5,60.5 60.5,60.5C 58.9519,60.8212 58.2852,61.8212 58.5,63.5C 57.596,62.791 57.2627,61.791 57.5,60.5C 56.5,60.5 55.5,60.5 54.5,60.5C 54.5,59.5 54.5,58.5 54.5,57.5C 52.8008,57.3398 51.1341,57.5065 49.5,58C 51.8333,63.3333 50.1667,65.3333 44.5,64C 43.0652,61.7328 43.3985,59.7328 45.5,58C 42.5,57.3333 39.5,57.3333 36.5,58C 39.3085,60.9104 38.8085,63.0771 35,64.5C 33.8926,64.4148 32.8926,64.0814 32,63.5C 31.2571,61.5594 31.4238,59.7261 32.5,58C 23.5062,57.5002 14.5062,57.3336 5.5,57.5C 5.5,58.5 5.5,59.5 5.5,60.5C 4.5,60.5 3.5,60.5 2.5,60.5C 2.73731,61.791 2.40397,62.791 1.5,63.5C 1.33591,60.8127 1.50258,58.146 2,55.5C 3.63492,54.2744 5.13492,52.941 6.5,51.5C 4.80678,50.7717 3.30678,49.7717 2,48.5C 1.50258,45.854 1.33591,43.1873 1.5,40.5C 2.5,40.5 3.5,40.5 4.5,40.5C 4.26269,41.791 4.59603,42.791 5.5,43.5C 5.5,44.5 5.5,45.5 5.5,46.5C 6.83333,46.5 8.16667,46.5 9.5,46.5C 9.33003,45.1779 9.66337,44.0113 10.5,43C 15.1667,42.3333 19.8333,42.3333 24.5,43C 25.3366,44.0113 25.67,45.1779 25.5,46.5C 28.3854,46.8064 31.0521,46.4731 33.5,45.5C 34.1667,45.8333 34.8333,46.1667 35.5,46.5C 39.1667,46.5 42.8333,46.5 46.5,46.5C 47.1667,46.5 47.8333,46.5 48.5,46.5C 50.5,46.5 52.5,46.5 54.5,46.5C 54.5,45.5 54.5,44.5 54.5,43.5C 55.404,42.791 55.7373,41.791 55.5,40.5C 56.5,40.5 57.5,40.5 58.5,40.5C 58.7771,43.4475 58.4438,46.2809 57.5,49C 62.8229,49.4994 68.1563,49.666 73.5,49.5C 73.5,46.5 73.5,43.5 73.5,40.5C 74.5,40.5 75.5,40.5 76.5,40.5C 76.2627,41.791 76.596,42.791 77.5,43.5C 77.7839,46.7766 77.4505,49.9433 76.5,53C 69.8333,53.3333 63.1667,53.6667 56.5,54C 57.1667,54.6667 57.8333,55.3333 58.5,56C 65.4143,56.8112 72.2476,56.6445 79,55.5C 79.4998,45.8391 79.6665,36.1724 79.5,26.5C 80.404,25.791 80.7373,24.791 80.5,23.5C 81.5,23.5 82.5,23.5 83.5,23.5 Z M 10.5,50.5 C 23.5171,50.1675 36.5171,50.5009 49.5,51.5C 43,51.8333 36.5,52.1667 30,52.5C 23.1307,52.4966 16.6307,51.83 10.5,50.5 Z"/></g>
<g><path style="opacity:0.806" fill="#fed168" d="M 5.5,60.5 C 5.5,62.1667 5.5,63.8333 5.5,65.5C 6.83333,65.5 8.16667,65.5 9.5,65.5C 9.23798,64.0222 9.57131,62.6888 10.5,61.5C 15.1667,60.1667 19.8333,60.1667 24.5,61.5C 25.4287,62.6888 25.762,64.0222 25.5,65.5C 35.1667,65.5 44.8333,65.5 54.5,65.5C 54.5,63.8333 54.5,62.1667 54.5,60.5C 55.5,60.5 56.5,60.5 57.5,60.5C 57.2627,61.791 57.596,62.791 58.5,63.5C 58.3691,64.3764 58.7025,65.0431 59.5,65.5C 60.4519,63.9547 60.7852,62.288 60.5,60.5C 61.5,60.5 62.5,60.5 63.5,60.5C 63.2627,61.791 63.596,62.791 64.5,63.5C 66.3052,65.1969 68.6385,66.0302 71.5,66C 73.2134,67.3782 74.5467,69.0448 75.5,71C 78.146,71.4974 80.8127,71.6641 83.5,71.5C 83.5,72.8333 83.5,74.1667 83.5,75.5C 56.1667,75.5 28.8333,75.5 1.5,75.5C 1.5,74.1667 1.5,72.8333 1.5,71.5C 3.28801,71.7852 4.95467,71.4519 6.5,70.5C 2.86156,69.534 1.1949,67.2007 1.5,63.5C 2.40397,62.791 2.73731,61.791 2.5,60.5C 3.5,60.5 4.5,60.5 5.5,60.5 Z M 60.5,60.5 C 60.7852,62.288 60.4519,63.9547 59.5,65.5C 58.7025,65.0431 58.3691,64.3764 58.5,63.5C 58.2852,61.8212 58.9519,60.8212 60.5,60.5 Z M 10.5,69.5 C 23.5171,69.1675 36.5171,69.5009 49.5,70.5C 43,70.8333 36.5,71.1667 30,71.5C 23.1307,71.4966 16.6307,70.83 10.5,69.5 Z M 53.5,69.5 C 59.352,69.0506 65.0187,69.5506 70.5,71C 67.6667,71.1667 64.8333,71.3333 62,71.5C 58.7485,71.4809 55.9151,70.8142 53.5,69.5 Z"/></g>
</svg>
